<?xml version="1.0" encoding="iso-8859-1"?>
<!-- Generator: Adobe Illustrator 19.0.0, SVG Export Plug-In . SVG Version: 6.00 Build 0)  -->
<svg xmlns="http://www.w3.org/2000/svg" xmlns:xlink="http://www.w3.org/1999/xlink" version="1.1" id="Capa_1" x="0px" y="0px" viewBox="0 0 512 512" style="enable-background:new 0 0 512 512;" xml:space="preserve" width="512px" height="512px">
<g>
	<g>
		<g>
			<path d="M444.875,109.792L338.167,3.125c-2-2-4.708-3.125-7.542-3.125H149.333C133.608,0,120,8.642,112.6,21.333h175.358     c8.542,0,16.583,3.333,22.625,9.375l106.708,106.667c6.042,6.042,9.375,14.083,9.375,22.625v303.4     C439.358,456,448,442.392,448,426.667V117.333C448,114.5,446.875,111.792,444.875,109.792z" fill="#FFFFFF"/>
			<path d="M295.5,45.792c-2-2-4.708-3.125-7.542-3.125H106.667C83.135,42.667,64,61.802,64,85.333v384     C64,492.865,83.135,512,106.667,512h256c23.531,0,42.667-19.135,42.667-42.667V160c0-2.833-1.125-5.542-3.125-7.542L295.5,45.792     z M213.333,224c0-5.896,4.771-10.667,10.667-10.667h32c5.896,0,10.667,4.771,10.667,10.667v42.667     c0,5.896-4.771,10.667-10.667,10.667h-32c-5.896,0-10.667-4.771-10.667-10.667V224z M128,245.333c0-17.646,14.354-32,32-32     h21.333c5.896,0,10.667,4.771,10.667,10.667v42.667c0,5.896-4.771,10.667-10.667,10.667h-42.667     c-5.896,0-10.667-4.771-10.667-10.667V245.333z M192,437.333c0,5.896-4.771,10.667-10.667,10.667H160c-17.646,0-32-14.354-32-32     v-21.333c0-5.896,4.771-10.667,10.667-10.667h42.667c5.896,0,10.667,4.771,10.667,10.667V437.333z M277.333,437.333     c0,5.896-4.771,10.667-10.667,10.667H224c-5.896,0-10.667-4.771-10.667-10.667v-42.667c0-5.896,4.771-10.667,10.667-10.667     h42.667c5.896,0,10.667,4.771,10.667,10.667V437.333z M341.333,416c0,17.646-14.354,32-32,32     c-5.896,0-10.667-4.771-10.667-10.667v-64c0-5.885-4.781-10.667-10.667-10.667H138.667c-5.896,0-10.667-4.771-10.667-10.667     v-42.667c0-5.896,4.771-10.667,10.667-10.667h192c5.896,0,10.667,4.771,10.667,10.667V416z M341.333,266.667     c0,5.896-4.771,10.667-10.667,10.667h-32c-5.896,0-10.667-4.771-10.667-10.667V224c0-5.896,4.771-10.667,10.667-10.667h10.667     c17.646,0,32,14.354,32,32V266.667z" fill="#FFFFFF"/>
		</g>
	</g>
</g>
<g>
</g>
<g>
</g>
<g>
</g>
<g>
</g>
<g>
</g>
<g>
</g>
<g>
</g>
<g>
</g>
<g>
</g>
<g>
</g>
<g>
</g>
<g>
</g>
<g>
</g>
<g>
</g>
<g>
</g>
</svg>
