<svg id="logo" xmlns="http://www.w3.org/2000/svg" width="799.987" height="129.607" viewBox="0 0 179 29">
  <defs>
    <style>
      .cls-1 {
        fill: #4a4a4a;
        fill-rule: evenodd;
      }
    </style>
  </defs>
  <path id="Forma_1" data-name="Forma 1" class="cls-1" d="M55.691,5.078v-2.3a0.656,0.656,0,0,0-.72-0.756,33.939,33.939,0,0,0-6.839-.5c-4.679,0-8.315,1.26-8.315,7.379V27.827a0.722,0.722,0,0,0,.72.72h3.528a0.722,0.722,0,0,0,.72-0.72V16.812h9.755a0.722,0.722,0,0,0,.72-0.72V13.5a0.722,0.722,0,0,0-.72-0.72H44.784V8.893c0-2.376.756-3.1,2.844-3.1h7.343A0.722,0.722,0,0,0,55.691,5.078Zm21.1,14.794V16.956c0-5.147-2.952-8.963-8.6-8.963s-8.6,3.816-8.6,8.963v2.916c0,5.147,2.952,8.963,8.6,8.963S76.786,25.019,76.786,19.872Zm-4.751,0c0,2.952-1.332,4.859-3.852,4.859s-3.852-1.908-3.852-4.859V16.956c0-2.952,1.332-4.859,3.852-4.859S72.035,14,72.035,16.956v2.916Zm25.847,8.279a0.58,0.58,0,0,0-.108-0.324l-6.551-9.791,5.939-9.071a0.886,0.886,0,0,0,.144-0.4,0.314,0.314,0,0,0-.36-0.324H93.131a0.991,0.991,0,0,0-.972.72l-3.384,5.615L85.14,8.965a1.085,1.085,0,0,0-.936-0.72H79.956a0.447,0.447,0,0,0-.468.432,0.479,0.479,0,0,0,.108.288l6.083,9.107-6.443,9.755a0.58,0.58,0,0,0-.108.324,0.378,0.378,0,0,0,.4.4h3.743a1.042,1.042,0,0,0,.972-0.72l3.888-6.335,4.1,6.335a1,1,0,0,0,.936.72H97.45A0.388,0.388,0,0,0,97.882,28.151Zm21.959-18V9.829c0-6.371-4.823-8.315-10.366-8.315a49.147,49.147,0,0,0-7.055.468,1.06,1.06,0,0,0-1.152,1.08V27.827a0.722,0.722,0,0,0,.72.72h3.6a0.692,0.692,0,0,0,.684-0.72V18.432c0.828,0.036,2.268.144,3.2,0.144C115.018,18.576,119.841,16.524,119.841,10.153Zm-4.967,0c0,2.88-1.512,4.319-5.4,4.319-0.612,0-2.628-.072-3.2-0.108V5.8c0.648-.072,2.448-0.144,3.2-0.144,3.6,0,5.4,1.152,5.4,4.175v0.324Zm25.019,9.971V9a0.724,0.724,0,0,0-.683-0.756h-3.384a0.724,0.724,0,0,0-.684.756V20.124c0,3.744-1.368,4.608-3.456,4.608h-0.215c-2.088,0-3.456-.864-3.456-4.608V9a0.724,0.724,0,0,0-.684-0.756h-3.384a0.724,0.724,0,0,0-.683.756V20.124c0,7.847,6.083,8.711,8.207,8.711h0.215C133.81,28.835,139.893,27.971,139.893,20.124Zm18.144,3.1c0-1.836-.432-3.636-3.455-5.471l-4.716-2.88c-0.9-.54-1.44-0.9-1.44-1.476,0-1.116.756-1.512,2.484-1.512a53,53,0,0,1,5.939.432h0.108a0.608,0.608,0,0,0,.612-0.684V9.541a0.784,0.784,0,0,0-.648-0.828,26.66,26.66,0,0,0-6.407-.72c-4.571,0-6.839,1.8-6.839,5.4A5.932,5.932,0,0,0,146.7,18.36l4.931,3.024c1.152,0.72,1.584,1.152,1.584,1.836,0,0.972-.324,1.728-2.556,1.728-1.08,0-4.319-.18-6.047-0.4H144.5a0.61,0.61,0,0,0-.648.576v2.16a0.814,0.814,0,0,0,.684.828,29.8,29.8,0,0,0,6.443.72C155.7,28.835,158.037,26.351,158.037,23.22Zm20.592,4.572V15.553c0-4.535-2.592-7.559-8.423-7.559a17.55,17.55,0,0,0-3.456.36V1.874a0.722,0.722,0,0,0-.72-0.72h-3.311a0.722,0.722,0,0,0-.72.72V27.791a0.754,0.754,0,0,0,.72.756h3.311a0.754,0.754,0,0,0,.72-0.756V12.277a15.208,15.208,0,0,1,3.456-.324c2.628,0,3.671,1.116,3.671,3.6V27.791a0.754,0.754,0,0,0,.72.756h3.312A0.754,0.754,0,0,0,178.629,27.791ZM7.467,3.16L5.6,1.27A14.283,14.283,0,0,0,0,11.8H2.667A11.188,11.188,0,0,1,7.467,3.16ZM25.333,11.8H28A14.152,14.152,0,0,0,22.533,1.27L20.667,3.16A11.455,11.455,0,0,1,25.333,11.8Zm-2.667.675A8.665,8.665,0,0,0,16,3.97V3.025a2,2,0,1,0-4,0V3.97a8.665,8.665,0,0,0-6.667,8.5V19.9L2.667,22.6v1.35H25.333V22.6l-2.667-2.7V12.475ZM14,28h0.533A2.328,2.328,0,0,0,16.4,26.38a2.569,2.569,0,0,0,.267-1.08H11.333A2.691,2.691,0,0,0,14,28Z"/>
</svg>
